<?xml version="1.0" encoding="UTF-8" standalone="no"?>
<!DOCTYPE svg PUBLIC "-//W3C//DTD SVG 1.1//EN"
 "http://www.w3.org/Graphics/SVG/1.1/DTD/svg11.dtd">
<!-- Generated by graphviz version 14.0.0 (20250921.2048)
 -->
<!-- Title: G Pages: 1 -->
<svg width="582pt" height="98pt"
 viewBox="0.00 0.00 582.00 98.00" xmlns="http://www.w3.org/2000/svg" xmlns:xlink="http://www.w3.org/1999/xlink">
<g id="graph0" class="graph" transform="scale(1 1) rotate(0) translate(4 94)">
<title>G</title>
<polygon fill="white" stroke="none" points="-4,4 -4,-94 577.75,-94 577.75,4 -4,4"/>
<!-- data.aws_key_pair.key -->
<g id="node1" class="node">
<title>data.aws_key_pair.key</title>
<polygon fill="none" stroke="black" points="331.25,-90 178,-90 178,-54 331.25,-54 331.25,-90"/>
<text xml:space="preserve" text-anchor="middle" x="254.62" y="-67.33" font-family="sans-serif" font-size="14.00">data.aws_key_pair.key</text>
</g>
<!-- aws_instance.public_instance -->
<g id="node2" class="node">
<title>aws_instance.public_instance</title>
<polygon fill="none" stroke="black" points="573.75,-90 378.5,-90 378.5,-54 573.75,-54 573.75,-90"/>
<text xml:space="preserve" text-anchor="middle" x="476.12" y="-67.33" font-family="sans-serif" font-size="14.00">aws_instance.public_instance</text>
</g>
<!-- aws_instance.public_instance&#45;&gt;data.aws_key_pair.key -->
<g id="edge1" class="edge">
<title>aws_instance.public_instance&#45;&gt;data.aws_key_pair.key</title>
<path fill="none" stroke="black" d="M378.21,-72C366.5,-72 354.58,-72 343.02,-72"/>
<polygon fill="black" stroke="black" points="343.1,-68.5 333.1,-72 343.1,-75.5 343.1,-68.5"/>
</g>
<!-- aws_subnet.public_subnet -->
<g id="node4" class="node">
<title>aws_subnet.public_subnet</title>
<polygon fill="none" stroke="black" points="342.5,-36 166.75,-36 166.75,0 342.5,0 342.5,-36"/>
<text xml:space="preserve" text-anchor="middle" x="254.62" y="-13.32" font-family="sans-serif" font-size="14.00">aws_subnet.public_subnet</text>
</g>
<!-- aws_instance.public_instance&#45;&gt;aws_subnet.public_subnet -->
<g id="edge2" class="edge">
<title>aws_instance.public_instance&#45;&gt;aws_subnet.public_subnet</title>
<path fill="none" stroke="black" d="M400.2,-53.57C381.32,-48.92 360.91,-43.9 341.54,-39.14"/>
<polygon fill="black" stroke="black" points="342.6,-35.79 332.05,-36.8 340.93,-42.59 342.6,-35.79"/>
</g>
<!-- aws_subnet.private_subnet -->
<g id="node3" class="node">
<title>aws_subnet.private_subnet</title>
<polygon fill="none" stroke="black" points="567.38,-36 384.88,-36 384.88,0 567.38,0 567.38,-36"/>
<text xml:space="preserve" text-anchor="middle" x="476.12" y="-13.32" font-family="sans-serif" font-size="14.00">aws_subnet.private_subnet</text>
</g>
<!-- aws_subnet.private_subnet&#45;&gt;aws_subnet.public_subnet -->
<g id="edge3" class="edge">
<title>aws_subnet.private_subnet&#45;&gt;aws_subnet.public_subnet</title>
<path fill="none" stroke="black" d="M384.58,-18C374.54,-18 364.28,-18 354.15,-18"/>
<polygon fill="black" stroke="black" points="354.3,-14.5 344.3,-18 354.3,-21.5 354.3,-14.5"/>
</g>
<!-- aws_vpc.vpc_paris -->
<g id="node5" class="node">
<title>aws_vpc.vpc_paris</title>
<polygon fill="none" stroke="black" points="130.75,-36 0,-36 0,0 130.75,0 130.75,-36"/>
<text xml:space="preserve" text-anchor="middle" x="65.38" y="-13.32" font-family="sans-serif" font-size="14.00">aws_vpc.vpc_paris</text>
</g>
<!-- aws_subnet.public_subnet&#45;&gt;aws_vpc.vpc_paris -->
<g id="edge4" class="edge">
<title>aws_subnet.public_subnet&#45;&gt;aws_vpc.vpc_paris</title>
<path fill="none" stroke="black" d="M166.3,-18C158.36,-18 150.36,-18 142.52,-18"/>
<polygon fill="black" stroke="black" points="142.7,-14.5 132.7,-18 142.7,-21.5 142.7,-14.5"/>
</g>
</g>
</svg>
